PathFileType	4	(X/Y/Z)	/Users/itak/Documents/Research/Walk-IL/dataset/trc/00020_00004.trc
DataRate	CameraRate	NumFrames	NumMarkers	Units	OrigDataRate	OrigDataStartFrame	OrigNumFrames
100.000000	100.000000	4	53	mm	100.000000	784	896
Frame#	Time	RPSI			LPSI			L3			STRN			T10			C7			CLAV			RBAK			LBAK			LSHO			LUPA			LAEL			LAOL			LWTS			LWPS			LFRA			LIFD			LHPS			LHTS			RSHO			RUPA			RAEL			RAOL			RWTS			RWPS			RFRA			RIFD			RHTS			RHPS			RBHD			LFHD			RFHD			LBHD			LHIP			RHIP			RASI			LASI			LKNE			LTHI			LANK			LTIP			LTOE			LMT1			LMT5			LHEE			RKNE			RTHI			RANK			RTIP			RTOE			RMT1			RMT5			RHEE			
		X1	Y1	Z1	X2	Y2	Z2	X3	Y3	Z3	X4	Y4	Z4	X5	Y5	Z5	X6	Y6	Z6	X7	Y7	Z7	X8	Y8	Z8	X9	Y9	Z9	X10	Y10	Z10	X11	Y11	Z11	X12	Y12	Z12	X13	Y13	Z13	X14	Y14	Z14	X15	Y15	Z15	X16	Y16	Z16	X17	Y17	Z17	X18	Y18	Z18	X19	Y19	Z19	X20	Y20	Z20	X21	Y21	Z21	X22	Y22	Z22	X23	Y23	Z23	X24	Y24	Z24	X25	Y25	Z25	X26	Y26	Z26	X27	Y27	Z27	X28	Y28	Z28	X29	Y29	Z29	X30	Y30	Z30	X31	Y31	Z31	X32	Y32	Z32	X33	Y33	Z33	X34	Y34	Z34	X35	Y35	Z35	X36	Y36	Z36	X37	Y37	Z37	X38	Y38	Z38	X39	Y39	Z39	X40	Y40	Z40	X41	Y41	Z41	X42	Y42	Z42	X43	Y43	Z43	X44	Y44	Z44	X45	Y45	Z45	X46	Y46	Z46	X47	Y47	Z47	X48	Y48	Z48	X49	Y49	Z49	X50	Y50	Z50	X51	Y51	Z51	X52	Y52	Z52	X53	Y53	Z53	

785	7.84	-282.6344909667969	1066.119506835938	820.3551635742188	-276.2418518066406	1055.282348632812	657.5602416992188	-283.2182006835938	1127.762939453125	730.081787109375	-52.77366256713867	1305.969116210938	760.4929809570312	-303.6361999511719	1272.38330078125	722.5414428710938	-236.1904449462891	1536.576171875	717.7551879882812	-89.24327087402344	1432.481567382812	749.3851928710938	-311.393798828125	1403.964599609375	788.517333984375	-240.4848785400391	1496.82373046875	618.5985717773438	-126.073486328125	1493.676391601562	563.571044921875	-160.5702514648438	1374.413208007812	480.9136352539062	-194.470703125	1162.138671875	447.6894226074219	-259.5584716796875	1158.424926757812	530.375	-147.0204315185547	900.0690307617188	502.4949951171875	-223.1797027587891	895.1072387695312	456.9398498535156	-198.8555145263672	1045.742309570312	439.7479858398438	-142.8628692626953	713.1702880859375	523.2132568359375	-202.6369934082031	801.0904541015625	460.934326171875	-137.4250946044922	804.4680786132812	490.1682739257812	-190.1483459472656	1517.87646484375	901.7996215820312	-224.1090698242188	1452.01220703125	971.2723388671875	-297.0312805175781	1198.896728515625	1012.817016601562	-293.9519653320312	1162.516723632812	918.0877685546875	-214.6521301269531	921.90234375	1014.027893066406	-285.1839294433594	922.4029541015625	1074.175903320312	-298.3111267089844	1124.603393554688	1034.829467773438	-227.9117889404297	742.0152587890625	989.8942260742188	-203.6836242675781	809.4231567382812	1028.482299804688	-263.2418212890625	812.9872436523438	1074.225830078125	-158.5517120361328	1712.130004882812	803.9518432617188	31.94410133361816	1696.09912109375	715.2366943359375	16.01891326904297	1703.198120117188	812.4310913085938	-141.1655120849609	1706.181884765625	660.5488891601562	-175.9787902832031	956.3409423828125	551.5091552734375	-170.3540496826172	958.2116088867188	932.1241455078125	-69.62071228027344	987.3553466796875	860.1851196289062	-64.50605773925781	999.4981079101562	623.7304077148438	-108.8978424072266	502.4099426269531	576.7442626953125	-132.1870422363281	649.9401245117188	549.1592407226562	-483.9266357421875	188.4787292480469	411.9777221679688	-297.42041015625	353.0307312011719	475.0816040039062	-401.0154418945312	42.91171646118164	559.0242309570312	-434.2234802246094	92.65268707275391	549.3968505859375	-411.5929260253906	91.62881469726562	446.902099609375	-538.3036499023438	252.5751190185547	430.9663696289062	-52.07026672363281	540.1812133789062	906.7482299804688	-116.4388656616211	802.1724853515625	938.4257202148438	-115.9364013671875	43.58291625976562	910.6665649414062	-55.17101287841797	411.522216796875	913.68798828125	115.6192016601562	43.84613800048828	866.0258178710938	52.46862411499023	50.11318588256836	839.0028686523438	33.5766487121582	41.70476913452148	934.8844604492188	-171.1815643310547	45.19519805908203	864.20654296875	
786	7.850000000000001	-278.042236328125	1067.262451171875	824.5311889648438	-272.4457092285156	1056.642211914062	661.6725463867188	-278.9871826171875	1128.863647460938	734.5692138671875	-48.17297744750977	1306.9462890625	763.638671875	-299.2216796875	1273.578002929688	727.8150634765625	-231.7757720947266	1537.724609375	723.0497436523438	-84.65049743652344	1433.536254882812	753.1602172851562	-306.3241577148438	1405.017944335938	794.27099609375	-236.9999542236328	1498.225463867188	623.83203125	-123.0963897705078	1495.158447265625	567.8091430664062	-158.2341918945312	1375.990478515625	485.2560424804688	-191.8848419189453	1163.612670898438	452.2370300292969	-256.3299255371094	1159.71435546875	535.4202270507812	-143.040283203125	901.7846069335938	506.6485290527344	-219.5840454101562	896.4977416992188	461.7975463867188	-195.9392395019531	1047.214599609375	444.3269348144531	-137.7015686035156	714.9075317382812	527.1675415039062	-198.5451812744141	802.576416015625	465.5441589355469	-133.0779418945312	806.2861328125	494.145263671875	-183.9686737060547	1518.686157226562	906.5918579101562	-217.2274932861328	1452.750732421875	976.3550415039062	-289.3015441894531	1199.529052734375	1018.763854980469	-287.1673889160156	1163.096557617188	923.9918823242188	-206.0138854980469	922.7740478515625	1019.115539550781	-275.8956604003906	923.0448608398438	1080.027587890625	-290.1294860839844	1125.24072265625	1040.833129882812	-218.7923736572266	742.846435546875	995.2197265625	-194.5231018066406	810.2554321289062	1033.472534179688	-253.5227508544922	813.7144165039062	1079.866333007812	-154.8643341064453	1712.7734375	808.5806884765625	35.4714241027832	1698.48193359375	719.2523803710938	19.80103492736816	1705.28173828125	816.5134887695312	-137.8651275634766	1707.213745117188	665.110107421875	-172.6407470703125	957.767822265625	554.70458984375	-165.5935211181641	958.7484130859375	935.464599609375	-64.94423675537109	987.9029541015625	863.239990234375	-60.98773574829102	1000.755737304688	626.762939453125	-101.4577026367188	503.8101806640625	580.4053344726562	-126.7754211425781	651.1193237304688	552.9681396484375	-479.0359497070312	191.2445068359375	420.517578125	-292.0128173828125	355.2477416992188	481.3452758789062	-386.0297546386719	44.03991317749023	560.4102783203125	-421.2588500976562	92.97128295898438	553.5387573242188	-402.2308959960938	96.16920471191406	450.0716857910156	-534.4920043945312	253.2819519042969	443.08740234375	-50.52301025390625	539.8208618164062	908.67333984375	-112.7657318115234	802.25146484375	941.4360961914062	-115.9004058837891	43.49746322631836	910.7716674804688	-54.2898063659668	411.2296752929688	915.1804809570312	115.5643463134766	43.84125900268555	866.0077514648438	52.46047210693359	50.13728713989258	839.03173828125	33.54472351074219	41.67018508911133	934.9263305664062	-171.2174835205078	45.17527389526367	864.29541015625	
787	7.86	-273.5580139160156	1068.343994140625	828.6077270507812	-268.7216491699219	1057.955932617188	665.7028198242188	-274.8526916503906	1129.909301757812	738.9452514648438	-43.70525360107422	1307.8984375	766.6776733398438	-294.9122314453125	1274.723510742188	732.955810546875	-227.4885864257812	1538.822998046875	728.2094116210938	-80.16302490234375	1434.572265625	756.8035278320312	-301.3778991699219	1406.0205078125	799.8671875	-233.6292724609375	1499.577758789062	628.9461669921875	-120.2570343017578	1496.609985351562	571.9278564453125	-156.04296875	1377.554809570312	489.466552734375	-189.4541015625	1165.081909179688	456.609130859375	-253.2615356445312	1160.989990234375	540.2915649414062	-139.2079467773438	903.5074462890625	510.5867614746094	-216.120849609375	897.8779907226562	466.4488525390625	-193.1882171630859	1048.680419921875	448.7117919921875	-132.6382141113281	716.664306640625	530.9061279296875	-194.5656127929688	804.052001953125	469.9436645507812	-128.8614654541016	808.1151123046875	497.9027709960938	-177.9368133544922	1519.454956054688	911.2321166992188	-210.5013427734375	1453.440673828125	981.2703247070312	-281.6962585449219	1200.1142578125	1024.515869140625	-280.4635620117188	1163.61669921875	929.7130737304688	-197.5010223388672	923.6033325195312	1024.045043945312	-266.7626037597656	923.6514282226562	1085.683837890625	-282.0709228515625	1125.830078125	1046.634155273438	-209.7921142578125	743.6375732421875	1000.426513671875	-185.5230712890625	811.052001953125	1038.327758789062	-243.9751586914062	814.4153442382812	1085.338623046875	-151.3045043945312	1713.386840820312	813.0761108398438	38.83902740478516	1700.818115234375	723.140869140625	23.41797256469727	1707.318115234375	820.46875	-134.7044677734375	1708.199584960938	669.5370483398438	-169.3676910400391	959.1691284179688	557.8737182617188	-160.9444580078125	959.2431640625	938.7192993164062	-60.37448883056641	988.4279174804688	866.230712890625	-57.54033660888672	1001.990783691406	629.7410278320312	-94.25475311279297	505.2814331054688	583.8535766601562	-121.5478591918945	652.3233032226562	556.5498657226562	-473.3938903808594	192.7972717285156	429.2415161132812	-286.4342651367188	357.025390625	487.5756225585938	-370.9713134765625	45.23600006103516	562.7322387695312	-408.1215209960938	93.12250518798828	558.2317504882812	-392.3360290527344	99.93235778808594	454.1048889160156	-529.9658203125	252.7341003417969	454.9141845703125	-49.09711456298828	539.4529418945312	910.5615234375	-109.174560546875	802.3211669921875	944.369873046875	-115.8745651245117	43.41895294189453	910.86328125	-53.5166130065918	410.9402465820312	916.6393432617188	115.5108795166016	43.83582305908203	865.9928588867188	52.46165084838867	50.16831588745117	839.0599975585938	33.51493453979492	41.63787078857422	934.9666748046875	-171.2472534179688	45.16088104248047	864.3768920898438	
788	7.87	-269.1681213378906	1069.361694335938	832.5970458984375	-265.080078125	1059.213989257812	669.6558227539062	-270.8102111816406	1130.899047851562	743.2179565429688	-39.36630249023438	1308.820556640625	769.6256103515625	-290.7055969238281	1275.816284179688	737.9644775390625	-223.3237152099609	1539.869995117188	733.234375	-75.76542663574219	1435.582641601562	760.3200073242188	-296.5505981445312	1406.972778320312	805.3040771484375	-230.357666015625	1500.876098632812	633.9400024414062	-117.5324172973633	1498.019409179688	575.934814453125	-153.9644165039062	1379.092041015625	493.5540466308594	-187.1561889648438	1166.534912109375	460.8107299804688	-250.3446197509766	1162.244262695312	544.9823608398438	-135.5409088134766	905.2168579101562	514.3240966796875	-212.7925872802734	899.2406005859375	470.88232421875	-190.5881042480469	1050.130004882812	452.9062194824219	-127.7291030883789	718.419189453125	534.44091796875	-190.7185516357422	805.5084838867188	474.127685546875	-124.8014144897461	809.932861328125	501.4576416015625	-172.0568389892578	1520.182861328125	915.7255859375	-203.9371643066406	1454.081298828125	986.02099609375	-274.2242431640625	1200.64697265625	1030.063110351562	-273.8419494628906	1164.0751953125	935.24609375	-189.1181793212891	924.3876953125	1028.814575195312	-257.7873229980469	924.218994140625	1091.138793945312	-274.1480102539062	1126.363403320312	1052.220947265625	-200.9161071777344	744.3848876953125	1005.502197265625	-176.6703948974609	811.8230590820312	1043.0439453125	-234.5984497070312	815.0878295898438	1090.634155273438	-147.8786926269531	1713.965698242188	817.44140625	42.04780578613281	1703.109497070312	726.9043579101562	26.86836051940918	1709.315063476562	824.2980346679688	-131.68798828125	1709.126831054688	673.8323974609375	-166.1753997802734	960.5302734375	561.0217895507812	-156.3738403320312	959.7008666992188	941.8973999023438	-55.91205215454102	988.9318237304688	869.1546020507812	-54.16342926025391	1003.201416015625	632.6638793945312	-87.29735565185547	506.79833984375	587.118896484375	-116.4869766235352	653.5371704101562	559.9224243164062	-466.9944763183594	193.1256713867188	438.0799560546875	-280.6326293945312	358.2803344726562	493.7566528320312	-355.9194946289062	46.42682266235352	566.0848999023438	-394.8750610351562	93.09159088134766	563.5452270507812	-381.9794006347656	102.8060760498047	459.0072937011719	-524.6934204101562	250.9819030761719	466.3360900878906	-47.77532196044922	539.0772094726562	912.4041137695312	-105.61962890625	802.3843383789062	947.217529296875	-115.8601379394531	43.34680938720703	910.93896484375	-52.84095001220703	410.6524658203125	918.0610961914062	115.4594116210938	43.82909393310547	865.9805297851562	52.47051620483398	50.20405578613281	839.0869140625	33.48690414428711	41.60695266723633	935.00439453125	-171.2701721191406	45.15195846557617	864.448974609375	
